<svg width="284" height="78" viewBox="0 0 284 78" fill="none" xmlns="http://www.w3.org/2000/svg">
<path d="M25.2916 39.9602H45.469C48.5375 39.9602 51.1255 38.9754 53.2331 37.0057C55.3718 35.036 56.4411 32.2353 56.4411 28.6037C56.4411 25.9261 55.3253 23.5256 53.0937 21.402C50.8621 19.2476 48.3205 18.1705 45.469 18.1705H16.7371V78H13.3896V46.4233V14.8466H45.469C49.2503 14.8466 52.5823 16.2469 55.4648 19.0476C58.3472 21.8175 59.7885 25.0029 59.7885 28.6037C59.7885 33.0355 58.3937 36.5902 55.6042 39.2678C52.8147 41.9453 49.4363 43.2841 45.469 43.2841H25.2916V39.9602ZM25.2916 43.2841H45.469L55.6042 39.2678L59.7885 28.6037L55.4648 19.0476L45.469 14.8466H13.3896V44.9091V78H6.69482V8.19887H45.469C49.1574 8.19887 52.6133 9.13756 55.8367 11.0149C59.0911 12.8923 61.6792 15.416 63.6008 18.5859C65.5225 21.7252 66.4833 25.0644 66.4833 28.6037C66.4833 34.6667 64.4067 39.7448 60.2534 43.8381C56.1311 47.9006 51.203 49.9318 45.469 49.9318H25.2916V43.2841ZM25.2916 53.2557H45.469C49.8082 53.2557 53.8375 52.1939 57.5569 50.0703C61.2762 47.9467 64.2517 44.9922 66.4833 41.2067C68.7149 37.3904 69.8307 33.1894 69.8307 28.6037C69.8307 24.4489 68.7149 20.5556 66.4833 16.924C64.2827 13.2616 61.3072 10.3378 57.5569 8.15271C53.8065 5.96758 49.7773 4.87501 45.469 4.87501H3.34741V78H0V1.55115H45.469C50.3352 1.55115 54.9068 2.7976 59.1841 5.29049C63.4613 7.75261 66.8552 11.0765 69.3658 15.2621C71.9074 19.4169 73.1781 23.8641 73.1781 28.6037C73.1781 34.0819 71.9848 38.8984 69.5983 43.0533C67.2427 47.2081 64.0347 50.455 59.9745 52.794L68.6219 78H65.0886L56.813 54.3636C55.5732 54.8561 54.6279 55.1946 53.977 55.3793L61.7411 78H58.2078L50.6296 56.1641C50.3506 56.2256 49.3588 56.3333 47.6541 56.4872L54.8604 78H51.327L44.2137 56.5796H41.1918L47.9796 78H44.4462L37.6119 56.5796H25.2916V53.2557ZM23.4319 78H20.0845V21.4943H45.469C47.5456 21.4943 49.3278 22.2022 50.8156 23.6179C52.3343 25.0029 53.0937 26.6648 53.0937 28.6037C53.0937 33.9588 50.5521 36.6364 45.469 36.6364H25.2916V33.3125H45.469C46.8018 33.3125 47.8401 32.974 48.584 32.2969C49.3588 31.589 49.7463 30.358 49.7463 28.6037C49.7463 27.5265 49.3278 26.634 48.491 25.9261C47.6851 25.1875 46.6778 24.8182 45.469 24.8182H23.4319V78Z" fill="white"/>
<path d="M260.568 48.5653L263.916 42.2869V76.4489H260.568V48.5653ZM267.263 35.8239L270.61 29.5455V76.4489H267.263V35.8239ZM270.61 29.5455L277.305 16.9425V76.4489H270.61V29.5455ZM251.502 46.9957L249.596 43.5334L272.656 0H276.422L251.502 46.9957ZM247.643 39.7479L245.691 36.2393L265.031 0H268.844L247.643 39.7479ZM225.234 42.6562L228.582 48.9347V76.4489H225.234V42.6562ZM218.54 30.0071L221.887 36.2855V76.4489H218.54V30.0071ZM211.845 17.358L218.54 30.0071L218.679 50.4489L218.54 76.4489H211.845V17.358ZM238.903 56.5057H235.137L208.497 6.32457V76.4489H205.15V0H208.916L238.903 56.5057ZM246.481 56.5057H242.669L212.728 0H216.54L246.481 56.5057ZM280.653 6.32457L254.013 56.5057H250.2L220.306 0H224.072L252.153 52.9972L280.188 0H284V76.4489H280.653V6.32457Z" fill="white"/>
<path d="M97.9137 57.166C95.1366 54.4243 93.748 51.1266 93.748 47.2727C93.748 43.4189 95.1366 40.1341 97.9137 37.4183C100.717 34.6766 104.089 33.3058 108.03 33.3058C111.971 33.3058 115.33 34.6766 118.107 37.4183C120.911 40.1341 122.313 43.4189 122.313 47.2727C122.313 51.1266 120.911 54.4243 118.107 57.166C115.33 59.8818 111.971 61.2397 108.03 61.2397C104.089 61.2397 100.717 59.8818 97.9137 57.166ZM95.8903 35.4396C92.5578 38.7245 90.8915 42.6688 90.8915 47.2727C90.8915 51.8767 92.5578 55.821 95.8903 59.1058C99.2493 62.3907 103.296 64.0331 108.03 64.0331C112.765 64.0331 116.798 62.3907 120.131 59.1058C123.49 55.821 125.169 51.8767 125.169 47.2727C125.169 42.6688 123.49 38.7245 120.131 35.4396C116.798 32.1548 112.765 30.5124 108.03 30.5124C103.296 30.5124 99.2493 32.1548 95.8903 35.4396ZM90.6932 57.0884C88.9211 54.0881 88.0351 50.8162 88.0351 47.2727C88.0351 43.7293 88.9211 40.4574 90.6932 37.4571C92.4917 34.4568 94.925 32.0902 97.993 30.3572C101.061 28.5984 104.407 27.719 108.03 27.719C111.654 27.719 115 28.5984 118.068 30.3572C121.136 32.0902 123.556 34.4568 125.328 37.4571C127.126 40.4574 128.025 43.7293 128.025 47.2727C128.025 50.8162 127.126 54.0881 125.328 57.0884C123.556 60.0887 121.136 62.4683 118.068 64.2271C115 65.96 111.654 66.8265 108.03 66.8265C104.407 66.8265 101.061 65.96 97.993 64.2271C94.925 62.4683 92.4917 60.0887 90.6932 57.0884ZM86.9639 38.621C85.7737 41.3627 85.1786 44.2466 85.1786 47.2727C85.1786 50.2989 85.7737 53.1958 86.9639 55.9633C88.1806 58.7049 89.8071 61.0845 91.8437 63.1019C93.9067 65.0935 96.34 66.6842 99.1435 67.874C101.974 69.0379 104.936 69.6199 108.03 69.6199C111.125 69.6199 114.074 69.0379 116.877 67.874C119.707 66.6842 122.141 65.0935 124.177 63.1019C126.24 61.0845 127.867 58.7049 129.057 55.9633C130.274 53.1958 130.882 50.2989 130.882 47.2727C130.882 44.2466 130.274 41.3627 129.057 38.621C127.867 35.8535 126.24 33.4739 124.177 31.4823C122.141 29.4649 119.707 27.8742 116.877 26.7103C114.074 25.5205 111.125 24.9256 108.03 24.9256C104.936 24.9256 101.974 25.5205 99.1435 26.7103C96.34 27.8742 93.9067 29.4649 91.8437 31.4823C89.8071 33.4739 88.1806 35.8535 86.9639 38.621ZM84.3455 57.0496C82.9966 53.9458 82.3222 50.6869 82.3222 47.2727C82.3222 43.8586 82.9966 40.5996 84.3455 37.4959C85.7208 34.3921 87.5458 31.7281 89.8204 29.5037C92.1214 27.2535 94.8588 25.4688 98.0327 24.1497C101.207 22.8047 104.539 22.1322 108.03 22.1322C111.522 22.1322 114.854 22.8047 118.028 24.1497C121.202 25.4688 123.926 27.2535 126.201 29.5037C128.502 31.7281 130.327 34.3921 131.675 37.4959C133.051 40.5996 133.738 43.8586 133.738 47.2727C133.738 50.6869 133.051 53.9458 131.675 57.0496C130.327 60.1534 128.502 62.8304 126.201 65.0806C123.926 67.305 121.202 69.0896 118.028 70.4346C114.854 71.7537 111.522 72.4132 108.03 72.4132C104.539 72.4132 101.207 71.7537 98.0327 70.4346C94.8588 69.0896 92.1214 67.305 89.8204 65.0806C87.5458 62.8304 85.7208 60.1534 84.3455 57.0496ZM81.7271 36.4484C80.2195 39.8884 79.4657 43.4965 79.4657 47.2727C79.4657 51.049 80.2195 54.67 81.7271 58.1359C83.2346 61.5759 85.258 64.5504 87.797 67.0592C90.3626 69.5423 93.4042 71.5209 96.9218 72.9952C100.466 74.4695 104.169 75.2066 108.03 75.2066C111.892 75.2066 115.581 74.4695 119.099 72.9952C122.643 71.5209 125.685 69.5423 128.224 67.0592C130.789 64.5504 132.826 61.5759 134.334 58.1359C135.841 54.67 136.595 51.049 136.595 47.2727C136.595 43.4965 135.841 39.8884 134.334 36.4484C132.826 32.9825 130.789 30.0081 128.224 27.525C125.685 25.0162 122.643 23.0246 119.099 21.5503C115.581 20.076 111.892 19.3389 108.03 19.3389C104.169 19.3389 100.466 20.076 96.9218 21.5503C93.4042 23.0246 90.3626 25.0162 87.797 27.525C85.258 30.0081 83.2346 32.9825 81.7271 36.4484ZM79.1087 59.2222C77.4424 55.4201 76.6093 51.437 76.6093 47.2727C76.6093 43.1085 77.4424 39.1383 79.1087 35.362C80.7749 31.5599 83.0098 28.288 85.8134 25.5464C88.617 22.8047 91.9495 20.6192 95.811 18.9897C99.699 17.3602 103.772 16.5455 108.03 16.5455C112.289 16.5455 116.348 17.3602 120.21 18.9897C124.098 20.6192 127.444 22.8047 130.247 25.5464C133.051 28.288 135.286 31.5599 136.952 35.362C138.618 39.1383 139.451 43.1085 139.451 47.2727C139.451 51.437 138.618 55.4201 136.952 59.2222C135.286 62.9985 133.051 66.2574 130.247 68.9991C127.444 71.7408 124.098 73.9263 120.21 75.5558C116.348 77.1853 112.289 78 108.03 78C103.772 78 99.699 77.1853 95.811 75.5558C91.9495 73.9263 88.617 71.7408 85.8134 68.9991C83.0098 66.2574 80.7749 62.9985 79.1087 59.2222Z" fill="white"/>
<path d="M158.851 57.166C156.074 54.4243 154.686 51.1266 154.686 47.2727C154.686 43.4189 156.074 40.1341 158.851 37.4183C161.655 34.6766 165.027 33.3058 168.968 33.3058C172.909 33.3058 176.268 34.6766 179.045 37.4183C181.849 40.1341 183.25 43.4189 183.25 47.2727C183.25 51.1266 181.849 54.4243 179.045 57.166C176.268 59.8818 172.909 61.2397 168.968 61.2397C165.027 61.2397 161.655 59.8818 158.851 57.166ZM156.828 35.4396C153.496 38.7245 151.829 42.6688 151.829 47.2727C151.829 51.8767 153.496 55.821 156.828 59.1058C160.187 62.3907 164.234 64.0331 168.968 64.0331C173.702 64.0331 177.736 62.3907 181.068 59.1058C184.427 55.821 186.107 51.8767 186.107 47.2727C186.107 42.6688 184.427 38.7245 181.068 35.4396C177.736 32.1548 173.702 30.5124 168.968 30.5124C164.234 30.5124 160.187 32.1548 156.828 35.4396ZM151.631 57.0884C149.859 54.0881 148.973 50.8162 148.973 47.2727C148.973 43.7293 149.859 40.4574 151.631 37.4571C153.429 34.4568 155.863 32.0902 158.931 30.3572C161.999 28.5984 165.345 27.719 168.968 27.719C172.592 27.719 175.937 28.5984 179.005 30.3572C182.073 32.0902 184.493 34.4568 186.266 37.4571C188.064 40.4574 188.963 43.7293 188.963 47.2727C188.963 50.8162 188.064 54.0881 186.266 57.0884C184.493 60.0887 182.073 62.4683 179.005 64.2271C175.937 65.96 172.592 66.8265 168.968 66.8265C165.345 66.8265 161.999 65.96 158.931 64.2271C155.863 62.4683 153.429 60.0887 151.631 57.0884ZM147.902 38.621C146.711 41.3627 146.116 44.2466 146.116 47.2727C146.116 50.2989 146.711 53.1958 147.902 55.9633C149.118 58.7049 150.745 61.0845 152.781 63.1019C154.844 65.0935 157.278 66.6842 160.081 67.874C162.911 69.0379 165.874 69.6199 168.968 69.6199C172.063 69.6199 175.012 69.0379 177.815 67.874C180.645 66.6842 183.078 65.0935 185.115 63.1019C187.178 61.0845 188.805 58.7049 189.995 55.9633C191.211 53.1958 191.82 50.2989 191.82 47.2727C191.82 44.2466 191.211 41.3627 189.995 38.621C188.805 35.8535 187.178 33.4739 185.115 31.4823C183.078 29.4649 180.645 27.8742 177.815 26.7103C175.012 25.5205 172.063 24.9256 168.968 24.9256C165.874 24.9256 162.911 25.5205 160.081 26.7103C157.278 27.8742 154.844 29.4649 152.781 31.4823C150.745 33.4739 149.118 35.8535 147.902 38.621ZM145.283 57.0496C143.934 53.9458 143.26 50.6869 143.26 47.2727C143.26 43.8586 143.934 40.5996 145.283 37.4959C146.659 34.3921 148.484 31.7281 150.758 29.5037C153.059 27.2535 155.797 25.4688 158.97 24.1497C162.144 22.8047 165.477 22.1322 168.968 22.1322C172.459 22.1322 175.792 22.8047 178.966 24.1497C182.14 25.4688 184.864 27.2535 187.138 29.5037C189.439 31.7281 191.264 34.3921 192.613 37.4959C193.989 40.5996 194.676 43.8586 194.676 47.2727C194.676 50.6869 193.989 53.9458 192.613 57.0496C191.264 60.1534 189.439 62.8304 187.138 65.0806C184.864 67.305 182.14 69.0896 178.966 70.4346C175.792 71.7537 172.459 72.4132 168.968 72.4132C165.477 72.4132 162.144 71.7537 158.97 70.4346C155.797 69.0896 153.059 67.305 150.758 65.0806C148.484 62.8304 146.659 60.1534 145.283 57.0496ZM142.665 36.4484C141.157 39.8884 140.403 43.4965 140.403 47.2727C140.403 51.049 141.157 54.67 142.665 58.1359C144.172 61.5759 146.196 64.5504 148.735 67.0592C151.3 69.5423 154.342 71.5209 157.86 72.9952C161.404 74.4695 165.107 75.2066 168.968 75.2066C172.83 75.2066 176.519 74.4695 180.037 72.9952C183.581 71.5209 186.623 69.5423 189.162 67.0592C191.727 64.5504 193.764 61.5759 195.271 58.1359C196.779 54.67 197.533 51.049 197.533 47.2727C197.533 43.4965 196.779 39.8884 195.271 36.4484C193.764 32.9825 191.727 30.0081 189.162 27.525C186.623 25.0162 183.581 23.0246 180.037 21.5503C176.519 20.076 172.83 19.3389 168.968 19.3389C165.107 19.3389 161.404 20.076 157.86 21.5503C154.342 23.0246 151.3 25.0162 148.735 27.525C146.196 30.0081 144.172 32.9825 142.665 36.4484ZM140.046 59.2222C138.38 55.4201 137.547 51.437 137.547 47.2727C137.547 43.1085 138.38 39.1383 140.046 35.362C141.713 31.5599 143.948 28.288 146.751 25.5464C149.555 22.8047 152.887 20.6192 156.749 18.9897C160.637 17.3602 164.71 16.5455 168.968 16.5455C173.226 16.5455 177.286 17.3602 181.148 18.9897C185.036 20.6192 188.381 22.8047 191.185 25.5464C193.989 28.288 196.223 31.5599 197.89 35.362C199.556 39.1383 200.389 43.1085 200.389 47.2727C200.389 51.437 199.556 55.4201 197.89 59.2222C196.223 62.9985 193.989 66.2574 191.185 68.9991C188.381 71.7408 185.036 73.9263 181.148 75.5558C177.286 77.1853 173.226 78 168.968 78C164.71 78 160.637 77.1853 156.749 75.5558C152.887 73.9263 149.555 71.7408 146.751 68.9991C143.948 66.2574 141.713 62.9985 140.046 59.2222Z" fill="white"/>
<path d="M136.381 53.3561H140.443L141.459 61.8693H135.365L136.381 53.3561Z" fill="white"/>
<path d="M136.381 41.4377H140.443L144.506 28.9233H132.318L136.381 41.4377Z" fill="white"/>
</svg>
