<svg width="106" height="29" viewBox="0 0 106 29" fill="none" xmlns="http://www.w3.org/2000/svg">
<path d="M9.43981 14.857H16.9708C18.1161 14.857 19.0821 14.4908 19.8687 13.7585C20.6669 13.0262 21.066 11.9849 21.066 10.6347C21.066 9.63916 20.6496 8.74664 19.8167 7.95711C18.9837 7.15613 18.0351 6.75564 16.9708 6.75564H6.24693V29H4.99754V17.2599V5.51984H16.9708C18.3822 5.51984 19.6258 6.04048 20.7016 7.08175C21.7775 8.11158 22.3154 9.29588 22.3154 10.6347C22.3154 12.2824 21.7948 13.604 20.7537 14.5995C19.7125 15.595 18.4516 16.0928 16.9708 16.0928H9.43981V14.857ZM9.43981 16.0928H16.9708L20.7537 14.5995L22.3154 10.6347L20.7016 7.08175L16.9708 5.51984H4.99754V16.6969V29H2.49877V3.04825H16.9708C18.3475 3.04825 19.6373 3.39725 20.8405 4.09524C22.0551 4.79324 23.0211 5.73153 23.7383 6.91011C24.4556 8.07725 24.8142 9.31877 24.8142 10.6347C24.8142 12.8888 24.0391 14.7769 22.489 16.2987C20.9504 17.8091 19.111 18.5644 16.9708 18.5644H9.43981V16.0928ZM9.43981 19.8001H16.9708C18.5904 19.8001 20.0943 19.4054 21.4825 18.6158C22.8707 17.8263 23.9813 16.7278 24.8142 15.3204C25.6471 13.9015 26.0636 12.3396 26.0636 10.6347C26.0636 9.08992 25.6471 7.64244 24.8142 6.29221C23.9928 4.93055 22.8823 3.84351 21.4825 3.03109C20.0827 2.21867 18.5788 1.81246 16.9708 1.81246H1.24939V29H0V0.57666H16.9708C18.7871 0.57666 20.4934 1.04008 22.0898 1.96693C23.6863 2.88233 24.953 4.11813 25.8901 5.67432C26.8387 7.21906 27.313 8.87251 27.313 10.6347C27.313 12.6714 26.8676 14.4622 25.9768 16.0069C25.0976 17.5517 23.9003 18.7589 22.3848 19.6285L25.6124 29H24.2936L21.2049 20.2121C20.7421 20.3952 20.3893 20.521 20.1464 20.5897L23.0442 29H21.7254L18.897 20.8815C18.7928 20.9044 18.4227 20.9444 17.7864 21.0016L20.476 29H19.1573L16.5023 21.0359H15.3744L17.9079 29H16.5891L14.0382 21.0359H9.43981V19.8001ZM8.7457 29H7.49632V7.99143H16.9708C17.7459 7.99143 18.4111 8.25461 18.9664 8.78097C19.5332 9.29588 19.8167 9.91378 19.8167 10.6347C19.8167 12.6257 18.868 13.6212 16.9708 13.6212H9.43981V12.3854H16.9708C17.4683 12.3854 17.8558 12.2595 18.1335 12.0078C18.4227 11.7446 18.5673 11.2869 18.5673 10.6347C18.5673 10.2342 18.4111 9.90234 18.0987 9.63916C17.798 9.36454 17.422 9.22723 16.9708 9.22723H8.7457V29Z" fill="black"/>
<path d="M97.2543 18.0563L98.5037 15.7221V28.4233H97.2543V18.0563ZM99.7531 13.3191L101.003 10.9848V28.4233H99.7531V13.3191ZM101.003 10.9848L103.501 6.29912V28.4233H101.003V10.9848ZM93.8706 17.4728L93.1591 16.1855L101.766 0H103.172L93.8706 17.4728ZM92.4303 14.7781L91.7015 13.4736L98.9202 0H100.343L92.4303 14.7781ZM84.0664 15.8594L85.3158 18.1937V28.4233H84.0664V15.8594ZM81.5676 11.1565L82.817 13.4908V28.4233H81.5676V11.1565ZM79.0688 6.4536L81.5676 11.1565L81.6197 18.7566L81.5676 28.4233H79.0688V6.4536ZM89.168 21.0085H87.7625L77.8195 2.35144V28.4233H76.5701V0H77.9756L89.168 21.0085ZM91.9965 21.0085H90.5736L79.3985 0H80.8215L91.9965 21.0085ZM104.751 2.35144L94.8076 21.0085H93.3847L82.227 0H83.6326L94.1135 19.7041L104.577 0H106V28.4233H104.751V2.35144Z" fill="black"/>
<path d="M36.5453 21.254C35.5087 20.2347 34.9905 19.0086 34.9905 17.5757C34.9905 16.1429 35.5087 14.9216 36.5453 13.9119C37.5917 12.8926 38.8503 12.3829 40.3212 12.3829C41.7921 12.3829 43.0458 12.8926 44.0823 13.9119C45.1287 14.9216 45.6519 16.1429 45.6519 17.5757C45.6519 19.0086 45.1287 20.2347 44.0823 21.254C43.0458 22.2637 41.7921 22.7686 40.3212 22.7686C38.8503 22.7686 37.5917 22.2637 36.5453 21.254ZM35.7901 13.1762C34.5463 14.3975 33.9243 15.864 33.9243 17.5757C33.9243 19.2874 34.5463 20.7539 35.7901 21.9752C37.0438 23.1965 38.5542 23.8071 40.3212 23.8071C42.0882 23.8071 43.5937 23.1965 44.8375 21.9752C46.0912 20.7539 46.7181 19.2874 46.7181 17.5757C46.7181 15.864 46.0912 14.3975 44.8375 13.1762C43.5937 11.955 42.0882 11.3443 40.3212 11.3443C38.5542 11.3443 37.0438 11.955 35.7901 13.1762ZM33.8503 21.2251C33.1889 20.1096 32.8582 18.8932 32.8582 17.5757C32.8582 16.2583 33.1889 15.0418 33.8503 13.9263C34.5216 12.8108 35.4298 11.9309 36.5749 11.2866C37.72 10.6327 38.9688 10.3058 40.3212 10.3058C41.6736 10.3058 42.9224 10.6327 44.0675 11.2866C45.2126 11.9309 46.1159 12.8108 46.7773 13.9263C47.4486 15.0418 47.7842 16.2583 47.7842 17.5757C47.7842 18.8932 47.4486 20.1096 46.7773 21.2251C46.1159 22.3406 45.2126 23.2253 44.0675 23.8793C42.9224 24.5236 41.6736 24.8457 40.3212 24.8457C38.9688 24.8457 37.72 24.5236 36.5749 23.8793C35.4298 23.2253 34.5216 22.3406 33.8503 21.2251ZM32.4584 14.3591C32.0142 15.3784 31.7921 16.4506 31.7921 17.5757C31.7921 18.7008 32.0142 19.7779 32.4584 20.8068C32.9125 21.8262 33.5196 22.7109 34.2797 23.4609C35.0497 24.2014 35.9579 24.7928 37.0043 25.2352C38.0606 25.6679 39.1662 25.8843 40.3212 25.8843C41.4762 25.8843 42.5769 25.6679 43.6233 25.2352C44.6796 24.7928 45.5877 24.2014 46.3479 23.4609C47.1179 22.7109 47.725 21.8262 48.1692 20.8068C48.6233 19.7779 48.8503 18.7008 48.8503 17.5757C48.8503 16.4506 48.6233 15.3784 48.1692 14.3591C47.725 13.3301 47.1179 12.4454 46.3479 11.7049C45.5877 10.9549 44.6796 10.3635 43.6233 9.93072C42.5769 9.48837 41.4762 9.26719 40.3212 9.26719C39.1662 9.26719 38.0606 9.48837 37.0043 9.93072C35.9579 10.3635 35.0497 10.9549 34.2797 11.7049C33.5196 12.4454 32.9125 13.3301 32.4584 14.3591ZM31.4811 21.2107C30.9776 20.0568 30.7259 18.8451 30.7259 17.5757C30.7259 16.3064 30.9776 15.0947 31.4811 13.9407C31.9944 12.7868 32.6756 11.7963 33.5245 10.9693C34.3834 10.1327 35.4051 9.46914 36.5897 8.9787C37.7743 8.47865 39.0181 8.22862 40.3212 8.22862C41.6243 8.22862 42.8681 8.47865 44.0527 8.9787C45.2373 9.46914 46.2541 10.1327 47.1031 10.9693C47.9619 11.7963 48.643 12.7868 49.1465 13.9407C49.6598 15.0947 49.9165 16.3064 49.9165 17.5757C49.9165 18.8451 49.6598 20.0568 49.1465 21.2107C48.643 22.3647 47.9619 23.36 47.1031 24.1966C46.2541 25.0236 45.2373 25.6871 44.0527 26.1872C42.8681 26.6776 41.6243 26.9228 40.3212 26.9228C39.0181 26.9228 37.7743 26.6776 36.5897 26.1872C35.4051 25.6871 34.3834 25.0236 33.5245 24.1966C32.6756 23.36 31.9944 22.3647 31.4811 21.2107ZM30.5038 13.5513C29.9411 14.8303 29.6598 16.1717 29.6598 17.5757C29.6598 18.9797 29.9411 20.326 30.5038 21.6146C31.0665 22.8936 31.8217 23.9995 32.7694 24.9323C33.7269 25.8554 34.8622 26.5911 36.1751 27.1392C37.4979 27.6873 38.8799 27.9614 40.3212 27.9614C41.7625 27.9614 43.1396 27.6873 44.4525 27.1392C45.7753 26.5911 46.9106 25.8554 47.8582 24.9323C48.8158 23.9995 49.5759 22.8936 50.1386 21.6146C50.7013 20.326 50.9826 18.9797 50.9826 17.5757C50.9826 16.1717 50.7013 14.8303 50.1386 13.5513C49.5759 12.2627 48.8158 11.1568 47.8582 10.2336C46.9106 9.30085 45.7753 8.56039 44.4525 8.01226C43.1396 7.46412 41.7625 7.19006 40.3212 7.19006C38.8799 7.19006 37.4979 7.46412 36.1751 8.01226C34.8622 8.56039 33.7269 9.30085 32.7694 10.2336C31.8217 11.1568 31.0665 12.2627 30.5038 13.5513ZM29.5265 22.0185C28.9046 20.6049 28.5936 19.124 28.5936 17.5757C28.5936 16.0275 28.9046 14.5514 29.5265 13.1474C30.1484 11.7338 30.9826 10.5173 32.029 9.49798C33.0754 8.47865 34.3192 7.66607 35.7605 7.06024C37.2116 6.4544 38.7319 6.15149 40.3212 6.15149C41.9105 6.15149 43.4258 6.4544 44.8671 7.06024C46.3183 7.66607 47.567 8.47865 48.6134 9.49798C49.6598 10.5173 50.494 11.7338 51.1159 13.1474C51.7378 14.5514 52.0488 16.0275 52.0488 17.5757C52.0488 19.124 51.7378 20.6049 51.1159 22.0185C50.494 23.4225 49.6598 24.6341 48.6134 25.6535C47.567 26.6728 46.3183 27.4854 44.8671 28.0912C43.4258 28.6971 41.9105 29 40.3212 29C38.7319 29 37.2116 28.6971 35.7605 28.0912C34.3192 27.4854 33.0754 26.6728 32.029 25.6535C30.9826 24.6341 30.1484 23.4225 29.5265 22.0185Z" fill="black"/>
<path d="M59.2897 21.254C58.2531 20.2347 57.7349 19.0086 57.7349 17.5757C57.7349 16.1429 58.2531 14.9216 59.2897 13.9119C60.3361 12.8926 61.5947 12.3829 63.0656 12.3829C64.5365 12.3829 65.7902 12.8926 66.8267 13.9119C67.8731 14.9216 68.3963 16.1429 68.3963 17.5757C68.3963 19.0086 67.8731 20.2347 66.8267 21.254C65.7902 22.2637 64.5365 22.7686 63.0656 22.7686C61.5947 22.7686 60.3361 22.2637 59.2897 21.254ZM58.5345 13.1762C57.2906 14.3975 56.6687 15.864 56.6687 17.5757C56.6687 19.2874 57.2906 20.7539 58.5345 21.9752C59.7882 23.1965 61.2985 23.8071 63.0656 23.8071C64.8326 23.8071 66.3381 23.1965 67.5819 21.9752C68.8356 20.7539 69.4624 19.2874 69.4624 17.5757C69.4624 15.864 68.8356 14.3975 67.5819 13.1762C66.3381 11.955 64.8326 11.3443 63.0656 11.3443C61.2985 11.3443 59.7882 11.955 58.5345 13.1762ZM56.5947 21.2251C55.9333 20.1096 55.6026 18.8932 55.6026 17.5757C55.6026 16.2583 55.9333 15.0418 56.5947 13.9263C57.266 12.8108 58.1742 11.9309 59.3193 11.2866C60.4644 10.6327 61.7132 10.3058 63.0656 10.3058C64.418 10.3058 65.6668 10.6327 66.8119 11.2866C67.957 11.9309 68.8603 12.8108 69.5217 13.9263C70.1929 15.0418 70.5286 16.2583 70.5286 17.5757C70.5286 18.8932 70.1929 20.1096 69.5217 21.2251C68.8603 22.3406 67.957 23.2253 66.8119 23.8793C65.6668 24.5236 64.418 24.8457 63.0656 24.8457C61.7132 24.8457 60.4644 24.5236 59.3193 23.8793C58.1742 23.2253 57.266 22.3406 56.5947 21.2251ZM55.2028 14.3591C54.7586 15.3784 54.5364 16.4506 54.5364 17.5757C54.5364 18.7008 54.7586 19.7779 55.2028 20.8068C55.6569 21.8262 56.264 22.7109 57.0241 23.4609C57.7941 24.2014 58.7023 24.7928 59.7487 25.2352C60.805 25.6679 61.9106 25.8843 63.0656 25.8843C64.2206 25.8843 65.3213 25.6679 66.3677 25.2352C67.4239 24.7928 68.3321 24.2014 69.0923 23.4609C69.8622 22.7109 70.4694 21.8262 70.9136 20.8068C71.3677 19.7779 71.5947 18.7008 71.5947 17.5757C71.5947 16.4506 71.3677 15.3784 70.9136 14.3591C70.4694 13.3301 69.8622 12.4454 69.0923 11.7049C68.3321 10.9549 67.4239 10.3635 66.3677 9.93072C65.3213 9.48837 64.2206 9.26719 63.0656 9.26719C61.9106 9.26719 60.805 9.48837 59.7487 9.93072C58.7023 10.3635 57.7941 10.9549 57.0241 11.7049C56.264 12.4454 55.6569 13.3301 55.2028 14.3591ZM54.2255 21.2107C53.722 20.0568 53.4703 18.8451 53.4703 17.5757C53.4703 16.3064 53.722 15.0947 54.2255 13.9407C54.7388 12.7868 55.42 11.7963 56.2689 10.9693C57.1278 10.1327 58.1495 9.46914 59.3341 8.9787C60.5187 8.47865 61.7625 8.22862 63.0656 8.22862C64.3686 8.22862 65.6125 8.47865 66.7971 8.9787C67.9817 9.46914 68.9985 10.1327 69.8474 10.9693C70.7063 11.7963 71.3874 12.7868 71.8909 13.9407C72.4042 15.0947 72.6609 16.3064 72.6609 17.5757C72.6609 18.8451 72.4042 20.0568 71.8909 21.2107C71.3874 22.3647 70.7063 23.36 69.8474 24.1966C68.9985 25.0236 67.9817 25.6871 66.7971 26.1872C65.6125 26.6776 64.3686 26.9228 63.0656 26.9228C61.7625 26.9228 60.5187 26.6776 59.3341 26.1872C58.1495 25.6871 57.1278 25.0236 56.2689 24.1966C55.42 23.36 54.7388 22.3647 54.2255 21.2107ZM53.2482 13.5513C52.6855 14.8303 52.4042 16.1717 52.4042 17.5757C52.4042 18.9797 52.6855 20.326 53.2482 21.6146C53.8109 22.8936 54.5661 23.9995 55.5137 24.9323C56.4713 25.8554 57.6065 26.5911 58.9195 27.1392C60.2423 27.6873 61.6243 27.9614 63.0656 27.9614C64.5068 27.9614 65.8839 27.6873 67.1969 27.1392C68.5197 26.5911 69.6549 25.8554 70.6026 24.9323C71.5602 23.9995 72.3203 22.8936 72.883 21.6146C73.4457 20.326 73.727 18.9797 73.727 17.5757C73.727 16.1717 73.4457 14.8303 72.883 13.5513C72.3203 12.2627 71.5602 11.1568 70.6026 10.2336C69.6549 9.30085 68.5197 8.56039 67.1969 8.01226C65.8839 7.46412 64.5068 7.19006 63.0656 7.19006C61.6243 7.19006 60.2423 7.46412 58.9195 8.01226C57.6065 8.56039 56.4713 9.30085 55.5137 10.2336C54.5661 11.1568 53.8109 12.2627 53.2482 13.5513ZM52.2709 22.0185C51.649 20.6049 51.338 19.124 51.338 17.5757C51.338 16.0275 51.649 14.5514 52.2709 13.1474C52.8928 11.7338 53.727 10.5173 54.7734 9.49798C55.8198 8.47865 57.0636 7.66607 58.5049 7.06024C59.956 6.4544 61.4762 6.15149 63.0656 6.15149C64.6549 6.15149 66.1702 6.4544 67.6115 7.06024C69.0626 7.66607 70.3114 8.47865 71.3578 9.49798C72.4042 10.5173 73.2384 11.7338 73.8603 13.1474C74.4822 14.5514 74.7932 16.0275 74.7932 17.5757C74.7932 19.124 74.4822 20.6049 73.8603 22.0185C73.2384 23.4225 72.4042 24.6341 71.3578 25.6535C70.3114 26.6728 69.0626 27.4854 67.6115 28.0912C66.1702 28.6971 64.6549 29 63.0656 29C61.4762 29 59.956 28.6971 58.5049 28.0912C57.0636 27.4854 55.8198 26.6728 54.7734 25.6535C53.727 24.6341 52.8928 23.4225 52.2709 22.0185Z" fill="black"/>
<path d="M50.9027 19.8375H52.4189L52.798 23.0027H50.5236L50.9027 19.8375Z" fill="black"/>
<path d="M50.9027 15.4063H52.419L53.9353 10.7535H49.3864L50.9027 15.4063Z" fill="black"/>
</svg>
