<svg width="29" height="31" viewBox="0 0 29 31" fill="none" xmlns="http://www.w3.org/2000/svg">
<path d="M10.4705 15.4663H18.2254C19.4047 15.4663 20.3994 15.0891 21.2094 14.3348C22.0314 13.5804 22.4423 12.5078 22.4423 11.117C22.4423 10.0916 22.0135 9.1722 21.1558 8.35892C20.2981 7.53384 19.3213 7.12131 18.2254 7.12131H7.18266V30.0347H5.89612V17.9415V5.84834H18.2254C19.6787 5.84834 20.9593 6.38464 22.0671 7.45723C23.175 8.51804 23.7289 9.73796 23.7289 11.117C23.7289 12.8143 23.1928 14.1757 22.1207 15.2011C21.0486 16.2266 19.7502 16.7393 18.2254 16.7393H10.4705V15.4663ZM10.4705 16.7393H18.2254L22.1207 15.2011L23.7289 11.117L22.0671 7.45723L18.2254 5.84834H5.89612V17.3616V30.0347H3.32306V3.30241H18.2254C19.6429 3.30241 20.9712 3.6619 22.2101 4.38089C23.4608 5.09988 24.4555 6.0664 25.1941 7.28043C25.9327 8.48268 26.3019 9.76154 26.3019 11.117C26.3019 13.439 25.5038 15.3838 23.9076 16.9515C22.3232 18.5073 20.4292 19.2852 18.2254 19.2852H10.4705V16.7393ZM10.4705 20.5582H18.2254C19.8931 20.5582 21.4417 20.1515 22.8712 19.3383C24.3007 18.525 25.4443 17.3935 26.3019 15.9437C27.1596 14.4821 27.5885 12.8732 27.5885 11.117C27.5885 9.5258 27.1596 8.03478 26.3019 6.64395C25.4562 5.24132 24.3126 4.12158 22.8712 3.28473C21.4298 2.44787 19.8812 2.02944 18.2254 2.02944H2.03653V30.0347H0.75V0.75647H18.2254C20.0956 0.75647 21.8527 1.23383 23.4966 2.18856C25.1405 3.1315 26.4449 4.40447 27.4098 6.00746C28.3866 7.59867 28.875 9.30186 28.875 11.117C28.875 13.2151 28.4164 15.0597 27.4991 16.6509C26.5938 18.2421 25.3609 19.4856 23.8003 20.3814L27.1239 30.0347H25.7659L22.5853 20.9825C22.1088 21.1711 21.7455 21.3008 21.4953 21.3715L24.4794 30.0347H23.1213L20.2088 21.672C20.1016 21.6956 19.7204 21.7369 19.0652 21.7958L21.8348 30.0347H20.4768L17.7429 21.8312H16.5815L19.1903 30.0347H17.8323L15.2056 21.8312H10.4705V20.5582ZM9.75572 30.0347H8.46919V8.39428H18.2254C19.0235 8.39428 19.7085 8.66537 20.2803 9.20756C20.864 9.73796 21.1558 10.3744 21.1558 11.117C21.1558 13.1679 20.179 14.1934 18.2254 14.1934H10.4705V12.9204H18.2254C18.7376 12.9204 19.1367 12.7907 19.4226 12.5314C19.7204 12.2603 19.8693 11.7889 19.8693 11.117C19.8693 10.7045 19.7085 10.3627 19.3868 10.0916C19.0771 9.80869 18.69 9.66724 18.2254 9.66724H9.75572V30.0347Z" fill="#FB2576"/>
</svg>
